<?xml version="1.0" encoding="UTF-8"?><svg id="Layer_1" xmlns="http://www.w3.org/2000/svg" viewBox="0 0 2133.21 682.61"><defs><style>.cls-1{}</style></defs><path class="cls-1" d="m1241.46,639.21c-10.77,7.18-27.68-.62-36.5,10.02-12.36,4.53-9.53-15.1-23.21-8.47-5.32,6.68-15.58,5.78-24.48,7.98,10.86,13.06,19.91,4.02,29.02.59,4.67,5.3,10.8,7.01,18.74,4.32,10.75.12,21.5.58,32.24.24,6.47-.18,8.63-5.07,10.22-8.82,1.35-3.16-4.06-7.19-6.04-5.87Z"/><path class="cls-1" d="m888.63,653.04c-6.62,1.25-14.65-3.55-21.52,3.7,10.98,3.78,20.6,6.75,31.13.69,12.69-.02,26.5,3.15,36.7-8.7-16.81-2.23-31.6.78-46.3,4.31Z"/><path class="cls-1" d="m1713.87,646.91c-9.69-.9-18.05-6.06-28.4-4.88-5.27.5-11.73-5.7-14.97-.74-3.55,5.41,6.2,5.04,9.73,7.51,11.47,5.91,24.42,5.21,37.36,4.43,13.11-4.76,29.66-2.06,40.94-11.37-15.44.15-31.08-3.13-44.65,5.05Z"/><path class="cls-1" d="m758.73,659.72c-6.27-.04-12.54-.09-18.81-.14v.02c-10.05,4.05-14.79-5.5-23.41-5.14-5.39-.37-10.95-1.35-15.06,2.84h0c-5.84,2.5-11.6,5.22-7.81,11.38,2.12,3.47,3.46,9.46,11.15,3.68,4.67,1.45,9.34,2.9,14.01,4.35,11.2,1.74,8.9-12.44,20.25-10.52,4.7.27,9.38.53,14.08.8h0c14.47,6.73,22.6-7.12,35.66-5.07-10.23-7.63-20.29-1.07-30.05-2.2Z"/><path class="cls-1" d="m970.82,649.28c-7.21,3.21-17.66-2.16-23.56,5.67,8.23,9.35,18.35,1.39,27.42,1.6,4.6,5.79,9.83,5.11,14.7.2,2.23-2.25,6.64-5.95,3.21-7.88-6.55-3.66-14.49-2.19-21.77.43Z"/><path class="cls-1" d="m1517.4,633.55c-4.45.88-9.95,4.93-11.18,8.33-1.71,4.67,4.97,4.72,9.41,5.02,5.28.32,9.38-.6,8.1-5.88-1.02-3.18.14-8.75-6.33-7.48Z"/><path class="cls-1" d="m644.33,664.01c3.15-6.15-4.5-4.53-8.01-4.91-6.9-.74-13.97-.66-20.97-.92-29.15-2.51-57.89,3.65-86.91,3.91-1.02,1.36.21,2.39.73,3.51-.3-.02-.6-.04-.9-.05.02-1.15.08-2.31.17-3.46-6.31-2.34-12.42-6.24-19.64-1.1-10.89-.13-21.77-.26-32.65-.39h0c-3.95-.2-8.99-1.68-11.63-.33-5.71,2.93-9.46,16.36-16.33.87-.04-.07-6.06.7-7.89,2.16-3.23,2.57-2,5.34,1.03,8.02,15.12,13.3,27.96,12.07,38.75-3.93,1.61.04,3.22.06,4.84.1,8.18-1.68,16.2-2.04,23.79,1.29l-.09.17c-2.02,10.11,3.36,14.54,16.64,13.55,8.45-.64,16.96-.62,25.45-.89,9,.52,18.57,2.51,24.02-6.04h0c-1.41-5.39-10.33-3.58-12.81-7.95h0c16.49,2.43,39.51-10.59,48.02,11.63.61,1.61,7.77,2.07,11.04-2.79,2.7-4.03,8.38-6.87,12.73-10.25,3.68-.68,9.83-.65,10.61-2.18Zm-130.82,4.82s-.1.11-.12.17l-.07-.03c.06-.05.13-.1.19-.15Z"/><path class="cls-1" d="m1661.51,644.51c-9.25-4.63-16.23-5.43-25.03-1.91,7.26,4.58,13.91,7.09,25.03,1.91Z"/><path class="cls-1" d="m1367.68,650.07c10.44-3.3,16.81-5.32,23.19-7.33-7.43.19-16.83-5-23.19,7.33Z"/><path class="cls-1" d="m1392.41,632.08c8.82,5.32,19.71.24,24.94,7.29-.63.38-1.44.66-1.83,1.16-.37.44-.66,1.34-.35,1.66,4.93,5.15,13.49,8.94,19.21,5.09,5.84-3.93,3.35-10.32-6.94-11.01-10.02-6.13-21.27-5.39-35.04-4.2Z"/><path class="cls-1" d="m634.09,678.09c1.65,2.31,5.24,3.02,9.29,2.9,2.3-.05,5.2-.18,4.68-2.84-.65-3.32-3.52-5.7-7.71-5.9-3.33-.18-5.44,2.02-6.26,5.84Z"/><path class="cls-1" d="m1061.52,644.11c-6.08.67-13.28-.59-16.61,5.17-1.52,2.63.6,4.13,3.71,5.6,8.59,4.13,15.91,3.66,22.4-2.79,5.07.5,8.28-.77,5.25-4.84-3.23-4.32-7.42-8.59-14.75-3.14Z"/><path class="cls-1" d="m1590.08,637.86h0v-.02c-6.28-13.71-21.77-5.63-32.91-7.87-17.15,4.32-4.09,9.14-.81,13.83v-.02h0c5.27,2.53,9.9,11.63,15.79,6.23,7.57-7-1.84-11.29-10.37-13.61h-.01c.16-.91.28-1.8.37-2.74v.02c8.85.94,20.74-3.09,23.2,8.25-.54,4.16.57,7.58,7.05,7.37,1.72-.07,4.72-1.76,4.86-2.84.51-4.12-3.05-6.62-7.2-8.62Z"/><path class="cls-1" d="m1350.65,633.3c-7.75-.3-15.49-.58-23.26-.87-.5,5.71,9.7,1.25,8.51,6.12-21.64,4.21-43.4,5.44-70.77,3.75,22.86,13.25,61.9,14.55,84.22,5.91,16.37-4.4,7.94-9.69,1.31-14.91Z"/><path class="cls-1" d="m819.18,660.2c2.47.09,5.08.81,6.19.1,2.24-1.44,12.09,2.36,6.3-4.1-2.82-3.16-9.51-1.63-12.49,4Z"/><path class="cls-1" d="m1482.95,645.07c.55,1.35,3.07,2.22,5.23,3.67,1.31-1.16,3.25-2.43,3.03-2.76-.99-1.39-2.31-3.09-4.07-3.57-2.16-.61-5.16.19-4.19,2.65Z"/><path class="cls-1" d="m2080.67,368.57c2.78.28,6.14-2.69,9.24-4.2-3.4-.68-6.83-1.37-10.23-2.04-.22,2.22-6.03,5.59.99,6.24Z"/><path class="cls-1" d="m1138.52,639.48c-7.11,0-9.42,5.11-13.88,7.93-4.81.47-14.27-2.1-12.83,3.5,2.33,9.04,12.22,8.88,21.75,4.53,3.35-3.81,6.69-7.62,10.02-11.44,3.67-.25,9.62-.18,7.87-4.02-2.56-5.61-8.3-2.84-12.92-.49Z"/><path class="cls-1" d="m2125.02,163.05c16.7-3.41,3.01-7.27.95-10.97,1.34-.85,2.86-.95,4-2.68-.24-.03-.46-.16-.7-.19,4.93-4.47-13.08-6.01-6.43-12.84,9.36-9.6,2.05-21.98,1.46-33.14.05-.41.09-.82.14-1.23,2.16-.2,3.95.1,6.25-.3-2.11-.86-4.02-.71-6.08-1.4.17-1.6.33-3.2.49-4.8,6.74-11.36-1.35-20.38-6.9-29.83-1.15-2.5-2.29-4.99-3.44-7.49.3-.58.83-1.15.81-1.72,0-.46-.57-1.3-.98-1.32-11.69-.69-23.39-1.24-35.07-1.96-2.31-.14-3.17.19-2.67,1.93,3.25,1.14,6.58,2.29,12.05,4.22-6,.63-9.78,1.03-13.58,1.42,0,0,.03.03.05.04-.02,0-.03-.02-.03-.02-1.59-.27-3.16-.29-4.74-.07-12.37-2.19-23.98-7.31-37.47-5.2-6.33.34-12.69.7-19.03,1.06-.64-2.3-2.61-2.43-4.06-3.42.18.04.35.03.53.07,10.4,2.24,21.92,1.81,32.98,1.99,3.17.07,6.37-1.27,7.22-4.02,4.58.9,9.61.49,15.8-.53-6.98-1.62-12.76-2.94-18.85-4.36l-.14-.14c-.14.04-.27-.02-.41.02-2.57-.6-4.93-1.15-7.91-1.84,1.08,1.23,2.26,1.1,3.34,1.99-15.27,1.07-28.62-9.78-44.5-4.05-24.13,1.61-48.2-4.3-72.35.96-7.82-.07-15.65-.15-23.47-.23-4.99-1.7-12.59-1.03-11.98-7.85,10.09.25,21.06,2.88,27.61-6.51,3.33-.66,8.84-.24,7.4-4.35-1.42-4-7.21-2.71-11.41-2.96-16.39-1.69-32.93-1.63-49.35-4.78-11.73-2.25-24.98-4.14-37.54.31-1.92-2.83-4.13-5.28-8.9-3.98-1.7.46-3.83,2-5.2,3.78-10.9-1.35-21.51-5.23-33.01-1.16-7.75.04-15.5.08-23.26.11-1.63,1.44-1.53,2.1-1.95,3-3.34-5.95-8.11-9.99-19.54-8.36-6.28-2.37-12.4-5.04-18.9-6.99-4.17-1.25-8.33.03-8.65,3.96-.45,5.36,4.71,3.15,8.26,2.99,3.18-.14,6.35-.12,9.54-.17,1.91,11.97,13.24,13.18,24.27,16.19-11.09.08-22.18.2-33.09,2.73-10.94-.02-31.2-1.03-31.44.11-.65,3.11-1.81,3.87-2.77,5.49-7.43-.2-14.85-.49-22.28-.71-.44-.01-.99-.43-1.41-.34h-.01c-.75.08-1.5.15-2.25.22-2.47-.08-4.92-.15-7.38-.24-2.22-.08-4.51.98-6.8,1.56-5.79.54-11.59,1.07-17.37,1.61-.63-.17-.78.53-1.35.47-1.05-.22-2.41.63-3.36.05-11.24-6.94-19.74-3.48-29.01.11-3.88-3.22-7.66-4.53-11.21-.2-17.6-2.12-35-6.54-53.25-1.05-7.91-.09-15.83-.17-23.75-.26-3.33,1.14-6.67,2.26-10,3.4-3.28,1.91-6.56,3.82-9.85,5.74h-.01c-1.09-1.62-2-3.34-3.36-4.82-1.84-2.01-3.53-3.94-6.54-.23-3.79,4.68-8.68,5.56-13.7,5.26-2.57-4.35-5.5-3.95-8.59-1.42-1.16-.26-2.49-.37-3.56-.59-46.73-9.36-92.19-2.6-137.61,7.21-8.16,1.3-16.82-1.36-24.79,1.58-8.64-.73-17.29-.99-25.94.85-.87-.79-.63-2.14-.79-3.32.28.18.75.48,1.02.67,1.4-1.35,3.06-2.6,4.12-4.1,1.22-1.69.75-3.83-2.03-3.5-1.63.2-3.5,1.46-5.3,2.51-.47-.97-.37-2.4-2.34-2.17-6.14.73-17.02.28-17.53,9.26-20.26-6.66-34.69-7.58-48.96-1.18.37-3.65-.1-7.03-7.05-8.2-10.77-1.83-16.81,3.91-21.81,10.33-1.01.94-.53,1.92-.2,2.88-.24.07-.34,0-.58.07.17-1,.43-1.98.78-2.95-6.29-.52-12.58-1.03-18.87-1.54-.45-2.86-2.36-7.79-5.44-5.36-4.49,3.53-2.11,6.67,1.17,9.57-5.74,1.85-11.46,3.72-17.46,4.52-.96-.68-1.92-1.37-2.88-2.06-.47-4.11-.96-8.22-1.42-12.33-1.98.35-5.11.23-5.72,1.11-3,4.42,1.23,8.02,2.75,11.93h.01c-6.62,3.47-12.59,3.68-18.63,2.26-12.39-7.93-38.56-13.46-50.05-8.32-5.02,2.25,1.25,4.63,4.04,6.29h-.01c-.5,1.15-.85,2.32-1.05,3.51-.22.09-.45.08-.66.17-7.16.09-17.04-17.7-21.12,2.74h0c-26.39,1.7-4.19-12.52-7.72-17.89-11.22-.18-9.73,5.61-10.71,10.06-3.39,1.07-6.79,2.15-10.18,3.22-7.5-2.89-18.6,1.19-23.35-6.96v.06s-.01-.05-.01-.05c-8.96-1.63-13.7,3.13-19.19,6.78-3.98-.22-7.71-1.46-11.84-1.02-5.49-.17-8,2.65-9.98,6.03-.46-.8-.41-1.67-1.6-2.35-12.35-6.02-25.22-8.44-39.25-2.73-6.41,1.34-12.8,2.69-19.2,4.03-11.22-.54-22.42-1.07-33.63-1.61-15.79-5.46-21.36,2.58-27.05,10.45-2.28-.01-4.54-.05-6.82-.03-9.18-8.94-22.1-2.92-33.9-1.4-.54.48,0,1.05-.23,1.56h-.01c.08-.52.14-1.04.24-1.56-7.33,4.82-10.26-16.64-19.29-1.62-7.17,2.76-18.45-4.03-22.88,5.07-4.81.21-9.61.49-14.43.65-1.36-.31-2.61.24-3.94.11-5.14-13.17-21.29-.75-30.7-4-10.12-5.14-19.97-6.45-29.14,1.75-15.91-5.13-30.9-4.69-44.35,5.13.16.63,1,.82,1.38,1.3-.14-.03-.34.07-.48.03l-.91-1.32c-2.68.19-5.36.38-8.04.57-1.81-3.41,2.1-10.33-5.15-9.88-8.46.53-18.35,2.84-18.63,12.32,1.06,2.56,2.11,5.12,3.17,7.67-4.96,3.39-13.72,1.17-16.89,7.18-2.14,3.67-6.57,3.25-10.53,3.69-14.78-1.84-26.56,4.78-39.2,8.95h0c-2.45.49-5.03.68-7.58.93-4.19-5.77-14.33,1.09-18.38-4.94,1.93-1.29,3.87-2.58,5.81-3.86h0c9.06-1.63,21.41,2.06,24.44-9.38,3.1-.05,6.19-.09,9.29-.14,1.83,6.81,7.86,4.91,13.55,3.72-1.49-3.22-3.66-5.87-8.67-6.08v-.03c1.7,3.06,5.61,4.22,8.67,6.11,5.94-.65,10.88,4.57,18.78,1.11-6.46-7,.54-19.47-14.23-22.09-10.51-1.86-5.57,10.16-13.25,12.41-.49-2.74.22-7.1-1.68-7.92-6.55-2.82-7.1,4.73-12.11,5.46-7.33-2.11-2.63-9.32-8.31-12.13-2.88-4.88-6.17-4.73-9.8-.31-15.27,3.79-32.52,3.16-45.17,12.82-2.04-.81-4.08-1.61-6.12-2.42,1.03-.11,2.69-.28,3.69-.38-4.14-3.26-7.45-3.53-10.7-2.39-1.46-.58-2.92-1.15-4.38-1.73-1.58-.16-3.17-.23-4.77-.22-4.84-17.36-15.93,3.17-22.79-1.88-8.09-7.44-16.65-3.06-25.14-.15-2.5-.32-4.32.2-6.55.21,1.43-1.91.97-4.21-1.3-5.94-5.52-4.21-7.18.78-9.02,3.91h0c-12.47,1.93-19.41-2.63-22.72-11.44-1.74-3.59-5.84-4.03-9.99-4.38h0c.83-15.36,27.33-4.54,30.4-17.63-12.66-.47-24.95-.93-37.24-1.38-3.39-12.46-16.27-8.07-25.84-7.62-6.61.31-17.25.54-12.64,10.35-6.8,6.2-18.15.57-25.18,6.2-13.26,2.46-25.21,6.32-30.49,17.34-8.4,1.75-13.62,7.17-20.38,10.82-13.5-3.74-28.21-4.46-44.37-1.6l.35-.08h0c-8.65-15.87-19.94-3.81-30.31-1.22-.02,0-.04,0-.04,0-19.46,6.88-16.58,18.51-11.64,30.58-.22,1.02-.02,1.99.6,2.89.01,1.3.01,2.6.02,3.91-.44,4.95-.89,9.9-1.34,14.85h0c-4.21,4.3.55,7.36,2.2,10.87-8.96,6.53-4.25,14.77-5.24,22.3-1.6,1.35-2.08,2.75-2.52,4.14-5.19,2.08-10.52,3.98-15.7,6.07-5.04,2.09-11.1,3.45-11.65,9.37,6.94.54,11.78-1.92,16.12-5.35,4.12-1.43,8.02-3.32,12-5.06.36.62.22,1.23.77,1.86-.41,3.81-.82,7.6-1.24,11.4h0c2.68,3.27,2.84,6.33,1.85,9.29-6.18,2.51-11.54,5.25-16.64,8.14-7.72,1.35-16.2,1.73-22.09,11.95,11.7-4.73,19.84-8.03,27.99-11.31,2.18-.36,4.22-1.18,6.35-1.67-.15.18-.19.36-.33.54-23.85,8.47-5.44,17.99-2.41,27.12-.95.93-2.11,1.37-3.03,2.39,1.27-.24,2.18-.41,3.42-.65-.16,1.98-.32,3.96-.47,5.93-3.3,2.43-6.61,4.85-9.92,7.28-1.64,5.85-3.05,11.72-4.37,17.6-5.11-.47-10.07-.57-11.77,4.24-1.28,3.63,5.79,2.94,10.28,3.27-.06.36.05.74,0,1.1-10.54,7.78-6.31,8.57-.01,8.39-.12,4.29-.93,8.54-.01,12.89-2.66.16-5.32.33-7.98.49-7.02,2.19-4.99,6.94-5.4,10.98-6.43,7.75,7.9,13.56,1.78,22.31-.53.76-.41,1.64-.87,2.42-.43.22-.87.45-1.3.66-11.19,4.21-18.02-5.94-28.27-4.75-6.71,5.28-11.54,12.27-23.43,12.17-3.52-.03-10.07,3.65-7.63,7.48,2.33,3.66,5.21,9.8,13.51,7.53,6.62-1.81,12.59-5.1,19.18-7.02,12.78-3.71,19.6-1.61,14.81,10.24-9.08,2.27-21.1.09-24.95,10.24h0c-14.78,9.98-6.38,20.75.62,28.84,7.23,8.36,16.82,5.34,25.68.54-.03,4.4,1.24,8.78,1.81,13.17-.03,0-.05-.01-.05-.01-8.66,2.4-21.19,6.62-20.08,12.94,1.37,7.75,12.69,5.3,20.64,2.22h.01c-2.54,1.04-5.1,2.05-7.65,3.06-3.47.42-8.68.11-7.47,4.2,1.19,4.04,7.04,2.89,11.14,3.51h0c1.53,3.74,3.05,7.49,4.58,11.23-4.56,1.33-9.12,2.65-13.68,3.98-1.23-2.15-2.31-4.12-3.78-6.87-2.2,4.04-4.79,7.06-6.46,9.84-3.65,1.06-7.3,2.11-10.95,3.19-18.16,2.85-4.94,11.91-6.4,18.06,6.01.1,9.02-2.4,9.79-6.84.25-.03.51-.05.77-.08.06.03.09.04.15.07-4.09,1.79-7.15,4.55-10.71,6.84l-.09-.07c-4.68,1.33-9.36,2.63-14.04,3.95-18.79,5.49-6.56,16.57-8.21,25.13-1.39,3.63-6.72,6.35-4.46,10.82.79,3.73,1.58,7.45,2.36,11.16l-.37-.26c-16.72,3.4-2.99,7.29-.95,10.98-1.34.85-2.86.95-4,2.68.24.02.45.16.69.2-4.91,4.46,13.09,6.01,6.44,12.82-9.37,9.6-2.05,21.98-1.46,33.16-.04.41-.09.81-.13,1.23-2.17.2-3.96-.11-6.26.3,2.12.86,4.02.71,6.09,1.39-.16,1.61-.33,3.21-.49,4.8h0c-6.75,11.35,1.35,20.39,6.89,29.82,1.15,2.5,2.3,4.99,3.45,7.49h0c-.29.58-.82,1.15-.81,1.72,0,.47.58,1.32.98,1.33,11.69.69,23.39,1.25,35.08,1.97,2.31.13,3.16-.21,2.66-1.95-3.26-1.14-6.58-2.3-12.06-4.21,5.99-.64,9.79-1.04,13.59-1.44h-.01s.02,0,.02,0c1.55.24,3.13.26,4.71.04,12.37,2.19,23.99,7.3,37.48,5.22,6.34-.35,12.68-.72,19.02-1.07,0,0,0,0,0,0,.66,2.31,2.62,2.44,4.06,3.42-.17-.04-.34-.03-.51-.07-10.4-2.25-21.92-1.81-32.97-2-3.17-.05-6.35,1.29-7.22,4.04-4.57-.9-9.62-.49-15.82.52,7,1.63,12.77,2.95,18.86,4.37l.14.13c.13-.04.25.02.39-.02,2.57.59,4.93,1.13,7.92,1.83-1.08-1.24-2.27-1.09-3.35-2,15.27-1.06,28.63,9.78,44.51,4.04,24.12-1.61,48.2,4.3,72.34-.96,7.83.08,15.66.16,23.49.24,4.99,1.71,12.58,1.05,11.98,7.85-10.09-.26-21.06-2.88-27.63,6.51-3.32.66-8.84.24-7.38,4.35,1.42,4,7.19,2.72,11.4,2.97h0c16.41,1.68,32.94,1.62,49.36,4.77,11.73,2.27,24.98,4.14,37.54-.3,1.92,2.84,4.12,5.28,8.9,3.99,1.7-.45,3.83-2.01,5.2-3.78,10.89,1.35,21.5,5.22,32.99,1.16,7.76-.03,15.51-.08,23.27-.09-.01-.01-.04-.01-.04-.01,0,0,.02-.02.04,0,1.63-1.44,1.53-2.11,1.95-2.99,3.36,5.94,8.11,10,19.54,8.35,6.28,2.38,12.41,5.05,18.9,6.99,4.15,1.24,8.33-.02,8.66-3.94.44-5.37-4.71-3.15-8.26-2.99-3.18.14-6.37.12-9.54.18-1.91-11.97-13.24-13.17-24.27-16.18,11.09-.09,22.18-.21,33.08-2.74,10.94,0,31.21,1.02,31.44-.1.65-3.11,1.8-3.88,2.77-5.51,7.42.2,14.82.5,22.23.72.46.01,1.03.43,1.46.35.79-.08,1.59-.16,2.38-.22,2.42.08,4.84.14,7.26.24,2.19.07,4.49-.99,6.76-1.56,5.81-.54,11.62-1.08,17.43-1.61.63.16.77-.54,1.34-.47,1.05.21,2.41-.65,3.36-.05,11.23,6.95,19.73,3.47,29.01-.11,3.88,3.23,7.67,4.53,11.22.19,17.59,2.12,34.99,6.53,53.23,1.04,7.92.09,15.84.18,23.75.25,3.34-1.12,6.67-2.26,10-3.39,3.29-1.91,6.58-3.83,9.86-5.74,1.1,1.62,2,3.34,3.35,4.81,1.84,2,3.55,3.94,6.54.23,3.79-4.67,8.68-5.55,13.69-5.26,2.56,4.35,5.51,3.97,8.61,1.44,1.16.26,2.48.37,3.56.58,46.74,9.36,92.19,2.6,137.61-7.22,8.16-1.3,16.82,1.36,24.77-1.59,8.64.75,17.29,1,25.95-.85.87.79.64,2.14.79,3.33-.28-.17-.75-.49-1.02-.66-1.4,1.36-3.06,2.59-4.12,4.1-1.22,1.69-.75,3.82,2.04,3.49,1.63-.19,3.49-1.45,5.29-2.5.46.97.37,2.4,2.34,2.16,6.14-.71,17-.27,17.53-9.24,20.26,6.65,34.69,7.6,48.96,1.18-.37,3.65.12,7.01,7.05,8.19,10.77,1.82,16.81-3.9,21.81-10.33,1.01-.93.53-1.92.2-2.88.24-.07.35.02.58-.07-.17,1-.43,1.99-.78,2.97,6.29.51,12.58,1.01,18.87,1.52.45,2.87,2.36,7.8,5.44,5.36,4.48-3.51,2.11-6.66-1.16-9.56,5.73-1.86,11.44-3.73,17.44-4.53.96.69,1.93,1.38,2.89,2.06.47,4.12.96,8.23,1.42,12.33,1.98-.34,5.11-.22,5.73-1.1,2.99-4.42-1.24-8.03-2.76-11.94h-.01c6.61-3.46,12.57-3.68,18.59-2.28,12.38,7.95,38.59,13.48,50.08,8.34,5.02-2.25-1.25-4.62-4.04-6.29h.01c.5-1.14.85-2.31,1.05-3.51.22-.09.45-.08.66-.17,7.16-.09,17.03,17.7,21.12-2.74h0c26.39-1.71,4.19,12.52,7.73,17.88,11.21.19,9.72-5.59,10.7-10.05,3.39-1.08,6.79-2.15,10.18-3.23,7.5,2.89,18.6-1.18,23.35,6.96v-.06s.02.04.02.04c8.94,1.65,13.69-3.11,19.15-6.76,3.99.21,7.72,1.46,11.86,1.02,5.49.15,8-2.66,9.98-6.03.46.79.41,1.66,1.6,2.33,12.35,6.03,25.22,8.44,39.25,2.74,6.41-1.34,12.8-2.7,19.2-4.04,11.22.54,22.42,1.08,33.63,1.62,15.8,5.45,21.36-2.59,27.06-10.46,2.27.01,4.54.04,6.81.03,9.17,8.96,22.11,2.92,33.89,1.4.54-.48,0-1.04.23-1.55h.02c-.08.52-.14,1.04-.25,1.55,7.33-4.81,10.27,16.66,19.3,1.64,7.16-2.77,18.45,4.01,22.87-5.07,4.81-.22,9.62-.49,14.43-.65,1.35.31,2.6-.25,3.93-.12,5.14,13.17,21.29.76,30.7,4.01,10.12,5.15,19.97,6.45,29.13-1.75,15.91,5.14,30.91,4.69,44.36-5.15-.16-.62-1.01-.81-1.38-1.29.15.02.33-.08.47-.04l.91,1.32c2.68-.19,5.34-.37,8.04-.56,1.81,3.42-2.11,10.31,5.15,9.86,8.46-.51,18.35-2.83,18.63-12.3-1.06-2.55-2.11-5.12-3.17-7.67,4.96-3.39,13.72-1.17,16.9-7.18,2.14-3.67,6.56-3.26,10.52-3.69,14.76,1.85,26.56-4.77,39.19-8.96h0c2.45-.49,5.03-.67,7.58-.92,4.18,5.77,14.33-1.1,18.38,4.95-1.94,1.27-3.88,2.55-5.81,3.85h.01s-.02,0-.02,0c-9.06,1.64-21.41-2.07-24.43,9.37-3.1.04-6.2.1-9.29.14-1.85-6.8-7.85-4.91-13.56-3.73-5.94.67-10.88-4.56-18.77-1.09,6.46,7-.55,19.47,14.24,22.1,10.5,1.86,5.56-10.17,13.24-12.42.49,2.73-.21,7.11,1.69,7.92,6.55,2.82,7.1-4.73,12.11-5.47,7.34,2.12,2.62,9.32,8.31,12.13,2.89,4.89,6.17,4.73,9.8.32,15.27-3.8,32.53-3.18,45.18-12.82,2.04.81,4.08,1.61,6.12,2.43-1.03.11-2.68.27-3.68.37,4.14,3.26,7.45,3.53,10.7,2.4,1.45.56,2.91,1.14,4.37,1.72,1.58.15,3.17.22,4.78.21l.02-.02-.02.03c4.83,17.35,15.91-3.17,22.78,1.87,8.1,7.45,16.64,3.05,25.14.16,2.51.31,4.32-.22,6.56-.22-1.43,1.91-.98,4.2,1.3,5.95,5.52,4.21,7.18-.78,9.02-3.91,12.46-1.92,19.41,2.64,22.71,11.44,1.75,3.58,5.84,4.03,10,4.37.85.16,1.71.28,2.59.39h0c-.8-.36-1.52-.96-2.58-.38-.82,15.36-27.31,4.53-30.39,17.63,12.66.47,24.94.91,37.23,1.38,3.39,12.45,16.28,8.08,25.86,7.62,6.6-.31,17.24-.52,12.63-10.35,6.8-6.2,18.15-.56,25.17-6.19,13.26-2.46,25.21-6.33,30.49-17.34,8.4-1.76,13.62-7.18,20.38-10.83,13.49,3.73,28.21,4.45,44.37,1.61l-.35.09c8.63,15.83,19.92,3.84,30.28,1.23l.09-.02c19.44-6.88,16.55-18.52,11.61-30.58.22-1.02.03-1.99-.6-2.89,0-1.31,0-2.6-.01-3.91.45-4.95.89-9.89,1.34-14.86,4.21-4.31-.54-7.37-2.2-10.85,8.96-6.56,4.26-14.77,5.24-22.32,1.6-1.35,2.08-2.75,2.53-4.14,5.18-2.07,10.51-3.98,15.7-6.08,5.05-2.09,11.09-3.45,11.65-9.34-6.94-.56-11.77,1.91-16.09,5.33h-.04c-4.12,1.43-8.01,3.31-11.99,5.05-.35-.63-.22-1.23-.76-1.86.4-3.79.81-7.6,1.23-11.4h-.01c-2.69-3.26-2.83-6.33-1.85-9.29,6.18-2.51,11.54-5.26,16.63-8.14,7.73-1.37,16.2-1.75,22.09-11.94-11.69,4.72-19.82,8-27.95,11.31h-.04c-2.17.35-4.22,1.18-6.35,1.66.15-.17.19-.36.34-.53,23.85-8.46,5.44-17.99,2.4-27.12.95-.94,2.11-1.37,3.03-2.41-1.27.25-2.18.41-3.41.65.16-1.96.3-3.94.46-5.92,3.3-2.43,6.61-4.85,9.91-7.28,1.64-5.86,3.06-11.73,4.38-17.61,5.12.45,10.06.56,11.77-4.23,1.29-3.63-5.8-2.96-10.28-3.27.05-.37-.05-.75,0-1.1,10.53-7.8,6.31-8.58,0-8.39.12-4.3.93-8.55.01-12.91,2.67-.16,5.32-.3,7.98-.48,7.03-2.19,5-6.94,5.4-10.99,6.45-7.75-7.89-13.55-1.78-22.29.53-.77.41-1.65.87-2.44.44-.22.87-.43,1.31-.67,11.19-4.19,18.01,5.94,28.27,4.75v.02h0v-.02c6.72-5.28,11.54-12.27,23.42-12.17,3.53.03,10.08-3.65,7.65-7.49-2.34-3.66-5.22-9.79-13.52-7.52-6.63,1.83-12.59,5.11-19.19,7.02-12.78,3.72-19.59,1.6-14.81-10.22,9.08-2.27,21.1-.09,24.96-10.26,14.79-9.97,6.38-20.73-.61-28.83-7.23-8.36-16.82-5.33-25.68-.55.02-4.4-1.24-8.78-1.82-13.17.02,0,.04.01.04.01,8.66-2.38,21.2-6.61,20.09-12.94-1.38-7.75-12.69-5.3-20.66-2.22h-.01c2.55-1.02,5.09-2.04,7.64-3.06,3.48-.42,8.68-.11,7.49-4.19-1.2-4.05-7.05-2.89-11.12-3.51h-.02c-1.53-3.76-3.04-7.5-4.58-11.24h-.01s.01,0,.01,0c4.57-1.33,9.13-2.65,13.69-3.97,1.22,2.16,2.31,4.12,3.78,6.86,2.2-4.04,4.77-7.07,6.45-9.83,3.65-1.06,7.3-2.11,10.95-3.18,18.16-2.85,4.94-11.91,6.39-18.06-6-.1-9.01,2.39-9.79,6.83-.26.03-.51.04-.76.07-.06-.03-.08-.03-.15-.06,4.09-1.79,7.16-4.55,10.69-6.83l.11.06c4.67-1.31,9.35-2.63,14.04-3.94,18.78-5.48,6.57-16.56,8.21-25.12,1.38-3.63,6.73-6.35,4.45-10.83-.79-3.73-1.56-7.44-2.37-11.17h.01s.37.26.37.26Zm-525.34,424.97c1.48,2.12,2.75,4.42,6.52,4.58v.03c-1.28-2.3-4.04-3.33-6.52-4.61Zm221.49,32.26h.01s0,.02,0,.02v-.02ZM313.52,77.93h0c-2.86.81-4.75,2.44-6.3,4.38h0c2.53-1.09,4.74-2.45,6.3-4.38Zm-123.79,106.22h.03c.47,0,.72-.39,1.17-.41h0c-.31.28-.9.08-1.17.41.21.32.41.65.62.97-1.1.29-2.08.73-3.16,1.03.84-.66,1.66-1.35,2.51-1.99Zm1627.97,426.53c0,.41-.03.83-.03,1.24h0c.12-.42.22-.82.03-1.24h0Zm125.78-112.22h-.03s-.01,0-.01,0c-.21-.31-.41-.64-.62-.97,1.09-.29,2.07-.71,3.15-1.02-.83.66-1.66,1.34-2.49,1.99Zm42.05-426.01c-.92-.03-1.86-.06-2.78-.09.35-.23.68-.46,1.01-.69.74.05,1.05.68,1.77.78Zm-169.33-40.02c-4.31-.99-8.61-2.27-13.11-.29h-.01c4.38.09,8.75.19,13.12.29h0ZM149.43,610.94c-.74-.04-1.05-.67-1.75-.77.92.02,1.84.04,2.76.08-.34.23-.67.46-1.01.69Zm167.56,39.24c4.31.98,8.61,2.28,13.12.3h.01c-4.38-.09-8.75-.19-13.12-.3h0ZM1966.44,71.87c-1.22-.04-2.45-.07-3.67-.11-3.27-1.35-6.55-2.69-9.81-4.05,5.88-.18,11.75-.36,17.63-.55-1.51,1.51-2.97,3.05-4.15,4.71Zm-14.06-7.32c-.03-.18-.01-.34-.06-.51.23-.07.44-.15.67-.22-.21.24-.47.46-.61.73Zm-1086.83,3.12c-4.81-.04-9.6-.08-14.39-.13h0c4.67,2.99,9.52,1.9,14.4.13h0ZM166.77,610.73c1.23.04,2.45.08,3.67.12,3.27,1.36,6.53,2.7,9.8,4.04-5.87.19-11.75.36-17.62.55,1.51-1.52,2.97-3.06,4.15-4.72Zm13.49,4.16h0Zm.58,3.15c.03.18.01.35.07.52h0c-.23.07-.45.16-.68.23.21-.24.47-.46.61-.74Zm1086.87-3.11c4.78.06,9.57.08,14.35.14h0c-4.66-2.99-9.49-1.9-14.35-.14h0ZM1945.43,47.76c-.03.26-1.02.1-.94.39.37,1.34,2.49,2.97,4.21,3.29,1.62.3,3.75-.95,5.67-1.52-.66-.74-1.02-1.14-1.63-1.81,10,.47,20,.94,29.99,1.42.22.02.43.07.65.09-1.39,4.16-3.88,7.83-7.26,11.09-4.36-.06-8.71-.12-13.07-.19-17.22-.98-34.44-1.95-51.65-2.93-.3.41-.6.82-.91,1.23-.12-.09-.25-.2-.37-.29l1.27-.94c.03-2.05.07-4.1.11-6.15,9.49-1.88,20.03,3.07,28.82-3.21,1.35.03,2.66-.13,3.93-.51.4.02.8.03,1.19.06Zm-188.55-25.3c3.34.77,7.82,1,7.37,3.48-1.96.11-3.93.07-5.9.11-.49-1.2-.99-2.46-1.48-3.59ZM187.78,634.85c.03-.26,1.03-.09.95-.39-.37-1.34-2.48-2.97-4.21-3.27-1.62-.31-3.76.96-5.68,1.51.67.75,1.03,1.15,1.64,1.81-10-.47-19.99-.93-29.99-1.41-.21-.02-.43-.07-.64-.09,1.39-4.15,3.87-7.82,7.25-11.08,4.36.06,8.71.12,13.08.18,17.21.98,34.43,1.97,51.64,2.93.3-.39.6-.8.9-1.21.13.1.25.2.37.29h0s-1.27.92-1.27.92c-.03,2.05-.07,4.1-.1,6.15h0c-9.48,1.89-20.04-3.06-28.84,3.23-1.34-.03-2.65.13-3.91.5-.4-.01-.8-.03-1.2-.06Zm188.55,25.29c-3.34-.76-7.83-.98-7.38-3.47,1.97-.1,3.94-.06,5.91-.11.49,1.22.99,2.46,1.48,3.59Zm1302.37-67.52c.72-.47,1.45-.95,2.18-1.42v.02c-.76.43-1.68.73-2.18,1.42v-.02Z"/><path class="cls-1" d="m891.75,43.4c10.77-7.18,27.68.62,36.5-10.03,12.35-4.53,9.54,15.1,23.21,8.47h0c5.32-6.67,15.58-5.78,24.48-7.96-10.86-13.07-19.9-4.04-29.02-.61-4.67-5.31-10.8-7.01-18.74-4.31-10.75-.13-21.5-.58-32.24-.26-6.47.2-8.63,5.08-10.22,8.83-1.34,3.16,4.06,7.19,6.04,5.87Z"/><path class="cls-1" d="m1244.58,29.58c6.62-1.25,14.65,3.54,21.52-3.7-10.98-3.78-20.6-6.75-31.13-.7-12.69.02-26.5-3.14-36.7,8.71,16.81,2.23,31.6-.77,46.3-4.31Z"/><path class="cls-1" d="m419.35,35.7c9.69.9,18.05,6.07,28.4,4.88,5.28-.5,11.73,5.71,14.99.75,3.54-5.41-6.21-5.04-9.75-7.52-11.46-5.92-24.4-5.2-37.36-4.43h0s0,0,0,0c-13.11,4.74-29.65,2.06-40.92,11.38,15.42-.16,31.06,3.12,44.65-5.07Z"/><path class="cls-1" d="m1374.48,22.89c6.27.04,12.53.08,18.81.13h0c10.05-4.04,14.79,5.49,23.4,5.14v-.02s0,.02,0,.02c5.39.36,10.96,1.34,15.07-2.84h.01c5.83-2.51,11.58-5.22,7.82-11.39-2.13-3.47-3.47-9.46-11.16-3.68-4.67-1.45-9.32-2.9-14-4.35h0c-11.19-1.73-8.91,12.44-20.25,10.52-4.69-.27-9.39-.54-14.08-.81-14.48-6.73-22.6,7.11-35.66,5.06,10.23,7.65,20.29,1.1,30.04,2.21Z"/><path class="cls-1" d="m1162.39,33.33c7.21-3.22,17.66,2.16,23.56-5.67-8.23-9.35-18.35-1.4-27.42-1.59-4.6-5.8-9.83-5.13-14.7-.21-2.23,2.26-6.64,5.97-3.2,7.88,6.54,3.65,14.48,2.19,21.76-.42Z"/><path class="cls-1" d="m615.8,49.07c4.47-.88,9.96-4.93,11.2-8.34,1.7-4.67-4.98-4.73-9.42-5.01-5.28-.34-9.38.59-8.11,5.87,1.03,3.18-.13,8.75,6.33,7.49Z"/><path class="cls-1" d="m1488.88,18.6c-3.14,6.17,4.51,4.53,8.01,4.91,6.89.75,13.98.66,20.98.92h-.04s.04,0,.04,0c29.14,2.53,57.89-3.63,86.91-3.9,1.03-1.35-.21-2.37-.72-3.5.3.02.6.04.89.06-.01,1.16-.08,2.3-.17,3.45,6.28,2.34,12.37,6.16,19.54,1.12h.09c10.89.12,21.77.25,32.65.38,3.94.19,8.99,1.69,11.63.33,5.71-2.95,9.46-16.36,16.34-.85.02.07,6.06-.72,7.9-2.17,3.23-2.56,1.99-5.35-1.03-8.02-15.12-13.31-27.97-12.07-38.74,3.93-1.62-.03-3.23-.06-4.85-.09-8.18,1.68-16.2,2.04-23.8-1.29l.1-.18c2.01-10.12-3.36-14.54-16.64-13.54-8.45.63-16.96.62-25.45.89-8.99-.53-18.57-2.5-24,6.02h-.02s0,0,0,0h.01c1.42,5.37,10.3,3.58,12.79,7.94-16.49-2.42-39.51,10.59-48.03-11.63-.6-1.6-7.76-2.06-11.02,2.81-2.71,4.01-8.38,6.87-12.74,10.23-3.69.69-9.83.65-10.61,2.19Zm130.83-4.81c.02-.07.1-.11.11-.18.02.02.05,0,.07.03-.06.05-.12.1-.18.15Z"/><path class="cls-1" d="m1021.41,31.7c-2.33-9.03-12.22-8.86-21.75-4.52.39,4.41,4.24,6.51,8.92,8.02,4.82-.46,14.27,2.11,12.83-3.51Z"/><path class="cls-1" d="m471.7,38.1c9.25,4.64,16.23,5.45,25.03,1.91-7.27-4.57-13.92-7.1-25.03-1.91Z"/><path class="cls-1" d="m765.54,32.55c-10.44,3.3-16.82,5.32-23.2,7.33,7.42-.2,16.83,4.99,23.2-7.33Z"/><path class="cls-1" d="m740.81,50.53c-8.82-5.34-19.72-.24-24.94-7.29.63-.37,1.44-.67,1.83-1.16.36-.46.65-1.35.34-1.68-4.93-5.16-13.5-8.94-19.21-5.09-5.84,3.93-3.34,10.32,6.94,11.02,10.03,6.13,21.28,5.39,35.04,4.2Z"/><path class="cls-1" d="m1499.12,4.53c-1.64-2.33-5.24-3.03-9.28-2.92-2.31.06-5.2.18-4.68,2.85.64,3.33,3.51,5.7,7.71,5.91,3.34.16,5.45-2.02,6.26-5.84Z"/><path class="cls-1" d="m1071.69,38.49c6.08-.67,13.28.6,16.61-5.17,1.52-2.62-.59-4.13-3.71-5.6-8.59-4.12-15.91-3.66-22.4,2.79-5.06-.5-8.28.78-5.25,4.84,3.24,4.33,7.41,8.58,14.75,3.14Z"/><path class="cls-1" d="m543.13,44.76c6.28,13.72,21.78,5.64,32.92,7.88,17.14-4.31,4.09-9.16.79-13.83-5.28-2.53-9.92-11.63-15.79-6.22-7.58,6.99,1.84,11.28,10.37,13.61h0c-.16.91-.29,1.81-.37,2.73-8.86-.94-20.75,3.07-23.21-8.27.54-4.16-.57-7.58-7.04-7.36-1.73.06-4.73,1.76-4.86,2.83-.51,4.11,3.04,6.63,7.19,8.62Z"/><path class="cls-1" d="m782.57,49.32h0c7.74.29,15.49.57,23.26.86.5-5.7-9.7-1.25-8.51-6.11,21.65-4.22,43.4-5.44,70.77-3.76-22.86-13.24-61.9-14.54-84.21-5.9-16.38,4.4-7.95,9.69-1.31,14.91Z"/><path class="cls-1" d="m1314.03,22.42c-2.47-.09-5.08-.81-6.19-.1-2.24,1.43-12.09-2.36-6.3,4.09,2.82,3.15,9.51,1.63,12.49-3.99Z"/><path class="cls-1" d="m650.26,37.55c-.55-1.37-3.08-2.23-5.22-3.68-1.31,1.16-3.26,2.43-3.03,2.75.98,1.39,2.32,3.09,4.06,3.58,2.16.6,5.16-.2,4.19-2.65Z"/><rect class="cls-1" x="53.52" y="320.29" width="0" height=".01"/><path class="cls-1" d="m52.54,314.04c-2.78-.26-6.14,2.71-9.24,4.21,3.41.69,6.81,1.37,10.22,2.05.19-2.23,6.05-5.61-.98-6.26Z"/><path class="cls-1" d="m994.67,43.13h.02c7.11.01,9.42-5.11,13.88-7.92-1.33-3.79-4.52-6.32-8.92-8.03-3.35,3.82-6.69,7.63-10.02,11.45-3.66.26-9.62.17-7.87,4.02,2.56,5.6,8.29,2.85,12.9.48Z"/></svg>