<?xml version="1.0" encoding="UTF-8"?>
<!DOCTYPE svg  PUBLIC '-//W3C//DTD SVG 1.1//EN'  'http://www.w3.org/Graphics/SVG/1.1/DTD/svg11.dtd'>
<svg enable-background="new 0 0 2560 1600" version="1.1" viewBox="0 0 2560 1600" xml:space="preserve" xmlns="http://www.w3.org/2000/svg">
<style type="text/css">
	.st0{fill:none;}
	.st1{fill:url(#a);}
</style>
<pattern id="a" width="200" height="220" overflow="visible" patternUnits="userSpaceOnUse" viewBox="100 -320 200 220">
		<rect class="st0" x="100" y="-320" width="200" height="220"/>
		<path d="m400-100c-24.144-61.844-161.84 75.856-100 100 61.844-24.144-75.856-161.84-100-100 24.144 61.844 161.84-75.856 100-100-61.844 24.144 75.856 161.84 100 100z"/>
		<path d="m200-100c-24.144-61.844-161.84 75.856-100 100 61.844-24.144-75.856-161.84-100-100 24.144 61.844 161.84-75.856 100-100-61.844 24.144 75.856 161.84 100 100z"/>
		<path d="m300-210c-24.144-61.844-161.84 75.856-100 100 61.844-24.144-75.856-161.84-100-100 24.144 61.844 161.84-75.856 100-100-61.844 24.144 75.856 161.84 100 100z"/>
		<path d="m400-320c-24.144-61.844-161.84 75.856-100 100 61.844-24.144-75.856-161.84-100-100 24.144 61.844 161.84-75.856 100-100-61.844 24.144 75.856 161.84 100 100z"/>
		<path d="m200-320c-24.144-61.844-161.84 75.856-100 100 61.844-24.144-75.856-161.84-100-100 24.144 61.844 161.84-75.856 100-100-61.844 24.144 75.856 161.84 100 100z"/>
</pattern>
<rect class="st1" width="2560" height="1600"/>
</svg>
