<?xml version="1.0" encoding="utf-8"?>
<!-- Generator: Adobe Illustrator 18.0.0, SVG Export Plug-In . SVG Version: 6.00 Build 0)  -->
<!DOCTYPE svg PUBLIC "-//W3C//DTD SVG 1.1//EN" "http://www.w3.org/Graphics/SVG/1.1/DTD/svg11.dtd">
<svg version="1.1" id="Layer_1" xmlns="http://www.w3.org/2000/svg" xmlns:xlink="http://www.w3.org/1999/xlink" x="0px" y="0px"
	 viewBox="0 0 64 64" enable-background="new 0 0 64 64" xml:space="preserve">
<g>
	<g>
		<g>
			<path fill="#47BA5F" d="M32,0c17.7,0,32,14.3,32,32S49.7,64,32,64S0,49.7,0,32S14.3,0,32,0z"/>
		</g>
	</g>
	<g>
		<g>
			<rect x="49.7" y="29.5" fill="#FFFFFF" width="7.3" height="3"/>
		</g>
	</g>
	<g>
		<g>
			<polygon fill="#FFFFFF" points="53.8,17 55.3,19.6 48.5,23.5 47,20.9 			"/>
		</g>
	</g>
	<g>
		<g>
			<polygon fill="#FFFFFF" points="45.7,9.1 42,15.7 39.4,14.3 43,7.7 			"/>
		</g>
	</g>
	<g>
		<g>
			<path fill="#FFD72E" d="M31,45h-6c0-1.1-0.2-2.2-0.7-3.3c-0.4-1-1.1-1.9-1.9-2.7c-2.6-2.3-4.4-5.3-4.4-9c0-7.5,6.5-14,14-14
				s14,6.5,14,14c0,3.7-1.8,6.7-4.4,9C40,40.5,39,42.7,39,45h-6"/>
		</g>
	</g>
	<g>
		<g>
			<rect x="25" y="47" fill="#A8DBEF" width="14" height="2"/>
		</g>
	</g>
	<g>
		<g>
			<polygon fill="#93B9CC" points="39,45 39,47 25,47 25,45 31,45 33,45 			"/>
		</g>
	</g>
	<g>
		<g>
			<path fill="#93B9CC" d="M25,49h14c0,1.1-0.9,2-2,2H27C25.9,51,25,50.1,25,49z"/>
		</g>
	</g>
	<g>
		<g>
			<path fill="#2B3E42" d="M27,51h10c0,2.8-2.2,5-5,5S27,53.8,27,51z"/>
		</g>
	</g>
	<g>
		<g>
			<circle fill="#516F72" cx="34" cy="53" r="1"/>
		</g>
	</g>
	<g>
		<g>
			<rect x="30.5" y="5" fill="#FFFFFF" width="3" height="7"/>
		</g>
	</g>
	<g>
		<g>
			<polygon fill="#FFFFFF" points="21,7.7 24.6,14.3 22,15.7 18.4,9.1 			"/>
		</g>
	</g>
	<g>
		<g>
			<polygon fill="#FFFFFF" points="17,20.9 15.5,23.5 8.7,19.6 10.1,17 			"/>
		</g>
	</g>
	<g>
		<g>
			<rect x="7" y="29.5" fill="#FFFFFF" width="7.3" height="3"/>
		</g>
	</g>
	<g>
		<g>
			<path fill="#FFFF6E" d="M37,34.6c0-2-1.7-3.4-5.1-4.1C29.3,29.9,29,29,29,28.3c0-1.2,1.4-2.1,3-2.1c1.4,0,2.7,0.7,2.9,1.7
				l1.9-0.5c-0.4-1.6-2-2.8-3.9-3.1V22h-2v2.2c-2.3,0.4-4,2.1-4,4.1c0,3.1,3.4,3.9,4.5,4.1c1.6,0.3,3.5,1,3.5,2.2
				c0,1.2-1.4,2.1-3,2.1c-1.4,0-2.7-0.7-2.9-1.7l-1.9,0.5c0.4,1.6,2,2.8,3.9,3.1V45h2v-6.4C35.3,38.2,37,36.6,37,34.6z"/>
		</g>
	</g>
</g>
</svg>
